<svg width="25" height="24" viewBox="0 0 25 24" fill="none" xmlns="http://www.w3.org/2000/svg">
<path opacity="0.3" d="M19.5 20H9.5C8.9 20 8.5 19.6 8.5 19V5C8.5 4.4 8.9 4 9.5 4H19.5C20.1 4 20.5 4.4 20.5 5V19C20.5 19.6 20.1 20 19.5 20Z" fill="#64F607"/>
<path d="M3.5 4H5.5V20H3.5V4ZM19.5 21H9.5C8.4 21 7.5 20.1 7.5 19V5C7.5 3.9 8.4 3 9.5 3H19.5C20.6 3 21.5 3.9 21.5 5V19C21.5 20.1 20.6 21 19.5 21ZM9.5 5V19H19.5V5H9.5Z" fill="#64F607"/>
<path d="M13.5 15H15.5V17H13.5V15ZM15.5 14H13.5C13.5 12.9 14.2 12.1 14.7 11.5C15.2 10.9 15.5 10.5 15.5 10C15.5 9.8 15.4 9 14.5 9C13.5 9 13.5 9.9 13.5 10H11.5C11.5 8.5 12.6 7 14.5 7C16.5 7 17.5 8.5 17.5 10C17.5 11.3 16.7 12.2 16.2 12.9C15.8 13.3 15.5 13.7 15.5 14Z" fill="#64F607"/>
</svg>
