<svg width="72" height="72" viewBox="0 0 72 72" fill="none" xmlns="http://www.w3.org/2000/svg">
<rect x="0.5" y="0.5" width="71" height="71" rx="3.5" stroke="url(#paint0_linear_10_131)"/>
<path d="M36.0004 26.3999C30.7079 26.3999 26.4004 30.7074 26.4004 35.9999C26.4004 41.2924 30.7079 45.5999 36.0004 45.5999C41.2928 45.5999 45.6004 41.2924 45.6004 35.9999C45.6004 30.7074 41.2928 26.3999 36.0004 26.3999ZM36.0004 27.9999C36.2708 27.9999 36.537 28.0129 36.8004 28.039V28.7999H38.4004V28.3655C40.0193 28.8717 41.4074 29.8822 42.4004 31.2077V33.5999L43.2004 35.1999V35.9999H44.0004C44.0004 40.0511 41.0067 43.3776 37.1066 43.9155L40.0004 41.5999L40.8004 40.7999L41.6004 39.1999V38.3999L40.8004 37.5999H40.0004L39.2004 36.7999L38.4004 35.9999H36.8004L36.0004 36.7999V37.5999L35.2004 38.3999V39.9999L36.8004 40.7999L35.2191 43.9608C31.1605 43.5693 28.0004 40.1636 28.0004 35.9999C28.0004 33.3778 29.259 31.0624 31.2004 29.6046V30.3999L30.4004 31.1999V32.7999L31.2004 35.1999L34.4004 36.7999H35.2004V35.9999L32.8004 35.1999V33.5999H35.2004L36.0004 31.9999L37.6004 31.1999V30.3999L35.2004 28.7999L34.0816 28.2405C34.697 28.0895 35.3376 27.9999 36.0004 27.9999ZM35.2004 34.3999V35.1999H36.8004V34.3999H35.2004Z" fill="#64F607"/>
<defs>
<linearGradient id="paint0_linear_10_131" x1="36" y1="0" x2="36" y2="72" gradientUnits="userSpaceOnUse">
<stop stop-color="#64F607"/>
<stop offset="1" stop-color="#64F607" stop-opacity="0.2"/>
</linearGradient>
</defs>
</svg>
