<svg width="106" height="16" viewBox="0 0 106 16" fill="none" xmlns="http://www.w3.org/2000/svg">
<path d="M6.97147 0.597287C7.22033 -0.199095 8.3039 -0.199096 8.55276 0.597286L9.81523 4.63729C9.92652 4.99344 10.2457 5.23458 10.6059 5.23458H14.6913C15.4966 5.23458 15.8315 6.3061 15.1799 6.79829L11.8748 9.29515C11.5834 9.51527 11.4615 9.90543 11.5728 10.2616L12.8352 14.3016C13.0841 15.098 12.2075 15.7602 11.5559 15.268L8.25076 12.7712C7.95939 12.551 7.56484 12.551 7.27347 12.7712L3.96829 15.268C3.31676 15.7602 2.44013 15.098 2.68899 14.3016L3.95146 10.2616C4.06275 9.90543 3.94083 9.51527 3.64946 9.29515L0.344283 6.79829C-0.307247 6.3061 0.0275947 5.23458 0.83293 5.23458H4.91835C5.27851 5.23458 5.59771 4.99344 5.709 4.63729L6.97147 0.597287Z" fill="#64F607"/>
<path d="M29.4959 0.597287C29.7447 -0.199095 30.8283 -0.199096 31.0772 0.597286L32.3396 4.63729C32.4509 4.99344 32.7701 5.23458 33.1303 5.23458H37.2157C38.021 5.23458 38.3559 6.3061 37.7044 6.79829L34.3992 9.29515C34.1078 9.51527 33.9859 9.90543 34.0972 10.2616L35.3596 14.3016C35.6085 15.098 34.7319 15.7602 34.0804 15.268L30.7752 12.7712C30.4838 12.551 30.0893 12.551 29.7979 12.7712L26.4927 15.268C25.8412 15.7602 24.9645 15.098 25.2134 14.3016L26.4759 10.2616C26.5872 9.90543 26.4652 9.51527 26.1739 9.29515L22.8687 6.79829C22.2172 6.3061 22.552 5.23458 23.3573 5.23458H27.4428C27.8029 5.23458 28.1221 4.99344 28.2334 4.63729L29.4959 0.597287Z" fill="#64F607"/>
<path d="M52.0198 0.597287C52.2687 -0.199095 53.3522 -0.199096 53.6011 0.597286L54.8636 4.63729C54.9749 4.99344 55.2941 5.23458 55.6542 5.23458H59.7396C60.545 5.23458 60.8798 6.3061 60.2283 6.79829L56.9231 9.29515C56.6317 9.51527 56.5098 9.90543 56.6211 10.2616L57.8836 14.3016C58.1324 15.098 57.2558 15.7602 56.6043 15.268L53.2991 12.7712C53.0077 12.551 52.6132 12.551 52.3218 12.7712L49.0166 15.268C48.3651 15.7602 47.4885 15.098 47.7373 14.3016L48.9998 10.2616C49.1111 9.90543 48.9892 9.51527 48.6978 9.29515L45.3926 6.79829C44.7411 6.3061 45.0759 5.23458 45.8813 5.23458H49.9667C50.3269 5.23458 50.646 4.99344 50.7573 4.63729L52.0198 0.597287Z" fill="#64F607"/>
<path d="M74.5442 0.597287C74.7931 -0.199095 75.8767 -0.199096 76.1255 0.597286L77.388 4.63729C77.4993 4.99344 77.8185 5.23458 78.1786 5.23458H82.2641C83.0694 5.23458 83.4042 6.3061 82.7527 6.79829L79.4475 9.29515C79.1562 9.51527 79.0342 9.90543 79.1455 10.2616L80.408 14.3016C80.6569 15.098 79.7802 15.7602 79.1287 15.268L75.8235 12.7712C75.5321 12.551 75.1376 12.551 74.8462 12.7712L71.541 15.268C70.8895 15.7602 70.0129 15.098 70.2617 14.3016L71.5242 10.2616C71.6355 9.90543 71.5136 9.51527 71.2222 9.29515L67.917 6.79829C67.2655 6.3061 67.6004 5.23458 68.4057 5.23458H72.4911C72.8513 5.23458 73.1705 4.99344 73.2818 4.63729L74.5442 0.597287Z" fill="#64F607"/>
<path d="M97.0681 0.597287C97.317 -0.199095 98.4006 -0.199096 98.6494 0.597286L99.9119 4.63729C100.023 4.99344 100.342 5.23458 100.703 5.23458H104.788C105.593 5.23458 105.928 6.3061 105.277 6.79829L101.971 9.29515C101.68 9.51527 101.558 9.90543 101.669 10.2616L102.932 14.3016C103.181 15.098 102.304 15.7602 101.653 15.268L98.3474 12.7712C98.0561 12.551 97.6615 12.551 97.3701 12.7712L94.065 15.268C93.4134 15.7602 92.5368 15.098 92.7857 14.3016L94.0481 10.2616C94.1594 9.90543 94.0375 9.51527 93.7461 9.29515L90.441 6.79829C89.7894 6.3061 90.1243 5.23458 90.9296 5.23458H95.015C95.3752 5.23458 95.6944 4.99344 95.8057 4.63729L97.0681 0.597287Z" fill="#64F607"/>
</svg>
