<svg width="17" height="18" viewBox="0 0 17 18" fill="none" xmlns="http://www.w3.org/2000/svg">
<path fill-rule="evenodd" clip-rule="evenodd" d="M13.8739 3.72667C12.5022 2.35417 10.6781 1.59751 8.73471 1.59668C4.7289 1.59668 1.46974 4.85417 1.4689 8.85834C1.46724 10.1325 1.8014 11.385 2.43807 12.4892L1.40723 16.2525L5.2589 15.2425C6.32474 15.8225 7.51807 16.1267 8.73141 16.1267H8.73471C12.7389 16.1267 15.9981 12.8683 15.9997 8.86417C16.0006 6.92417 15.2456 5.10001 13.8739 3.72667Z" stroke="#64F607" stroke-width="1.5" stroke-linecap="round" stroke-linejoin="round"/>
<path d="M6.94249 10.684C8.57999 12.3223 10.6542 13.3656 11.8883 12.1373L12.1875 11.8381C12.5867 11.4398 12.5308 10.7798 12.0675 10.4581C11.7758 10.2548 11.4625 10.0365 11.1158 9.79311C10.7575 9.54151 10.2658 9.5806 9.955 9.889L9.6167 10.2248C9.1975 9.959 8.7825 9.6181 8.39749 9.2331L8.39582 9.2315C8.01082 8.84646 7.66999 8.43146 7.40415 8.01229L7.73999 7.67396C8.04915 7.36313 8.08749 6.87146 7.83582 6.51313C7.59165 6.16646 7.37332 5.85313 7.17082 5.56146C6.84915 5.09896 6.18915 5.04313 5.79082 5.44146L5.49166 5.74063C4.26332 6.97479 5.30666 9.0481 6.94415 10.6865" stroke="#64F607" stroke-width="1.5" stroke-linecap="round" stroke-linejoin="round"/>
</svg>
