<svg width="21" height="28" viewBox="0 0 21 28" fill="none" xmlns="http://www.w3.org/2000/svg">
<path d="M2.99967 0.666748C1.52901 0.666748 0.333008 1.86275 0.333008 3.33341V24.6667C0.333008 26.1374 1.52901 27.3334 2.99967 27.3334H10.9997C12.4703 27.3334 13.6663 26.1374 13.6663 24.6667V23.3334C12.7397 23.3334 11.845 23.1922 10.9997 22.9402V24.6667H2.99967V3.33341H10.9997V5.05998C11.845 4.80798 12.7397 4.66675 13.6663 4.66675V3.33341C13.6663 1.86275 12.4703 0.666748 10.9997 0.666748H2.99967ZM13.6663 7.33341C9.98501 7.33341 6.99967 10.3187 6.99967 14.0001C6.99967 17.6814 9.98501 20.6667 13.6663 20.6667C17.3477 20.6667 20.333 17.6814 20.333 14.0001C20.333 10.3187 17.3477 7.33341 13.6663 7.33341ZM9.66634 12.6667H17.6663V15.3334H9.66634V12.6667Z" fill="#64F607"/>
</svg>
