<svg width="72" height="72" viewBox="0 0 72 72" fill="none" xmlns="http://www.w3.org/2000/svg">
<rect x="0.5" y="0.5" width="71" height="71" rx="3.5" stroke="url(#paint0_linear_9_129)"/>
<path d="M36 28C34.067 28 32.5 29.567 32.5 31.5C32.5 33.433 34.067 35 36 35C37.933 35 39.5 33.433 39.5 31.5C39.5 29.567 37.933 28 36 28ZM36 30C36.827 30 37.5 30.673 37.5 31.5C37.5 32.327 36.827 33 36 33C35.173 33 34.5 32.327 34.5 31.5C34.5 30.673 35.173 30 36 30ZM28.5 31C27.119 31 26 32.119 26 33.5C26 34.881 27.119 36 28.5 36C29.881 36 31 34.881 31 33.5C31 32.119 29.881 31 28.5 31ZM43.5 31C42.119 31 41 32.119 41 33.5C41 34.881 42.119 36 43.5 36C44.881 36 46 34.881 46 33.5C46 32.119 44.881 31 43.5 31ZM28.5 32.7227C28.929 32.7227 29.2773 33.071 29.2773 33.5C29.2773 33.929 28.929 34.2773 28.5 34.2773C28.071 34.2773 27.7227 33.929 27.7227 33.5C27.7227 33.071 28.071 32.7227 28.5 32.7227ZM43.5 32.7227C43.929 32.7227 44.2773 33.071 44.2773 33.5C44.2773 33.929 43.929 34.2773 43.5 34.2773C43.071 34.2773 42.7227 33.929 42.7227 33.5C42.7227 33.071 43.071 32.7227 43.5 32.7227ZM36 37C34.5253 37 32.1258 37.4683 30.5547 38.3984C29.9135 38.1553 29.2113 38 28.5 38C26.263 38 24 39.3976 24 40.9316V44H28.5H29H30H43H43.5H48V40.9316C48 39.3976 45.737 38 43.5 38C42.7887 38 42.0865 38.1553 41.4453 38.3984C39.8742 37.4683 37.4747 37 36 37ZM36 39C38.134 39 40.622 39.9614 41 40.5664V42H31V40.5664C31.378 39.9614 33.866 39 36 39ZM28.5 40C28.6979 40 28.8767 40.034 29.0586 40.0625C29.0214 40.2034 29 40.3494 29 40.5V42H28.5H26V41.0098C26.184 40.6898 27.198 40 28.5 40ZM43.5 40C44.802 40 45.816 40.6898 46 41.0098V42H43.5H43V40.5C43 40.3494 42.9786 40.2034 42.9414 40.0625C43.1233 40.034 43.3021 40 43.5 40Z" fill="#64F607"/>
<defs>
<linearGradient id="paint0_linear_9_129" x1="36" y1="0" x2="36" y2="72" gradientUnits="userSpaceOnUse">
<stop stop-color="#64F607"/>
<stop offset="1" stop-color="#64F607" stop-opacity="0.2"/>
</linearGradient>
</defs>
</svg>
