<svg width="72" height="72" viewBox="0 0 72 72" fill="none" xmlns="http://www.w3.org/2000/svg">
<rect x="0.5" y="0.5" width="71" height="71" rx="3.5" stroke="url(#paint0_linear_10_130)"/>
<path d="M31 26C30.448 26 30 26.448 30 27V35H29V37H30H42H43V35H42V27C42 26.448 41.552 26 41 26H31ZM27 28C25.895 28 25 28.895 25 30V40C25 41.105 25.895 42 27 42H34V44H32V46H40V44H38V42H45C46.105 42 47 41.105 47 40V30C47 28.895 46.105 28 45 28H44V30H45V40H27V30H28V28H27ZM32.9121 28H39.0879C39.1625 28.2103 39.2831 28.4013 39.4409 28.5591C39.5987 28.7169 39.7897 28.8375 40 28.9121V35H38.8164C38.4033 33.8372 37.3046 33 36 33C34.6954 33 33.5967 33.8372 33.1836 35H32V28.9121C32.2103 28.8375 32.4013 28.7169 32.5591 28.5591C32.7169 28.4013 32.8375 28.2103 32.9121 28V28ZM36 30C35.447 30 35 30.448 35 31C35 31.552 35.447 32 36 32C36.553 32 37 31.552 37 31C37 30.448 36.553 30 36 30Z" fill="#64F607"/>
<defs>
<linearGradient id="paint0_linear_10_130" x1="36" y1="0" x2="36" y2="72" gradientUnits="userSpaceOnUse">
<stop stop-color="#64F607"/>
<stop offset="1" stop-color="#64F607" stop-opacity="0.2"/>
</linearGradient>
</defs>
</svg>
