<svg width="30" height="29" viewBox="0 0 30 29" fill="none" xmlns="http://www.w3.org/2000/svg">
<path d="M12.9997 0.333252C10.4223 0.333252 8.33301 2.42259 8.33301 4.99992C8.33301 5.88473 8.59281 6.70379 9.02051 7.40877C5.04904 8.42574 2.9551 11.2135 2.11947 13.7473C1.97425 13.6943 1.82092 13.667 1.66634 13.6666C1.31272 13.6666 0.97358 13.8071 0.723532 14.0571C0.473484 14.3072 0.333008 14.6463 0.333008 14.9999C0.333008 15.3535 0.473484 15.6927 0.723532 15.9427C0.97358 16.1928 1.31272 16.3333 1.66634 16.3333C1.66634 17.8853 2.18797 19.4671 3.09863 20.9244L4.14811 27.2187C4.25478 27.8613 4.81122 28.3333 5.46322 28.3333H8.53613C9.18813 28.3333 9.74457 27.8627 9.85124 27.2187L10.0101 26.2655C11.3608 26.7255 12.813 26.9999 14.333 26.9999C15.2597 26.9999 16.159 26.9238 17.0283 26.7838L17.57 27.6848C17.8113 28.0875 18.2439 28.3333 18.7132 28.3333H21.6663C22.5077 28.3333 23.1376 27.5648 22.9736 26.7395L22.5752 24.7447C23.9112 23.8994 25 22.8519 25.7653 21.6666H27.2939C27.9059 21.6666 28.4376 21.2508 28.5856 20.6562L29.3669 17.5312C29.5349 16.8552 29.1558 16.1626 28.4945 15.9426L26.5908 15.3072C26.2508 14.2699 25.6789 13.1869 24.8643 12.1536C25.3136 10.6962 25.6663 8.93725 25.6663 6.99992L18.234 7.82544C17.8184 7.69946 17.3849 7.58451 16.9372 7.48429C17.3928 6.76363 17.6663 5.91557 17.6663 4.99992C17.6663 2.42259 15.577 0.333252 12.9997 0.333252ZM12.9997 2.99992C14.1023 2.99992 14.9997 3.89725 14.9997 4.99992C14.9997 6.10259 14.1023 6.99992 12.9997 6.99992C11.897 6.99992 10.9997 6.10259 10.9997 4.99992C10.9997 3.89725 11.897 2.99992 12.9997 2.99992ZM12.333 9.66659C14.1783 9.66659 15.9033 9.90552 17.4606 10.3775L17.984 10.5364L18.5283 10.4765L22.6715 10.0155C22.5742 10.4649 22.456 10.9177 22.3174 11.3697L21.9059 12.7056L22.7705 13.8046C23.3545 14.5459 23.8022 15.3526 24.0596 16.1379L24.4762 17.414L25.7497 17.8385L26.4814 18.0806L26.2497 18.9999H25.7627H24.3122L23.5231 20.2187C22.9738 21.0693 22.1534 21.8561 21.1481 22.4921L19.5986 23.4713L19.958 25.2681L20.0387 25.6666H19.4684L19.3148 25.4114L18.3877 23.8645L16.6064 24.1484C15.8464 24.271 15.0823 24.3333 14.333 24.3333C13.185 24.3333 12.0214 24.1341 10.8721 23.7421L7.89811 22.7291L7.40853 25.6666H6.59082L5.72884 20.4869L5.6403 19.9635L5.35905 19.5129C4.68705 18.4369 4.33301 17.3373 4.33301 16.3333C4.33301 16.2666 4.55034 9.66659 12.333 9.66659ZM20.333 14.9999C19.597 14.9999 18.9997 15.5973 18.9997 16.3333C18.9997 17.0693 19.597 17.6666 20.333 17.6666C21.069 17.6666 21.6663 17.0693 21.6663 16.3333C21.6663 15.5973 21.069 14.9999 20.333 14.9999Z" fill="#64F607"/>
</svg>
