<svg width="28" height="28" viewBox="0 0 28 28" fill="none" xmlns="http://www.w3.org/2000/svg">
<path d="M14.0003 0.666748C9.98482 0.666748 6.40529 2.47431 3.96126 5.29435L0.666992 2.00008V10.0001H8.66699L5.83626 7.16935C7.79372 4.83281 10.7198 3.33341 14.0003 3.33341C19.8817 3.33341 24.667 8.11875 24.667 14.0001C24.667 19.8814 19.8817 24.6667 14.0003 24.6667C8.11899 24.6667 3.33366 19.8814 3.33366 14.0001H0.666992C0.666992 21.3521 6.64833 27.3334 14.0003 27.3334C21.3523 27.3334 27.3337 21.3521 27.3337 14.0001C27.3337 6.64808 21.3523 0.666748 14.0003 0.666748ZM12.667 6.00008V14.5522L17.0576 18.9428L18.943 17.0574L15.3337 13.448V6.00008H12.667Z" fill="#64F607"/>
</svg>
