<svg width="19" height="19" viewBox="0 0 19 19" fill="none" xmlns="http://www.w3.org/2000/svg">
<path d="M9.52193 5.26074C8.29563 5.26074 7.11946 5.74791 6.25229 6.61508C5.38512 7.48225 4.89795 8.65838 4.89795 9.88478C4.89795 11.1111 5.38512 12.2873 6.25229 13.1544C7.11946 14.0216 8.29563 14.5088 9.52193 14.5088C10.7483 14.5088 11.9244 14.0216 12.7916 13.1544C13.6587 12.2873 14.1459 11.1111 14.1459 9.88478C14.1459 8.65838 13.6587 7.48225 12.7916 6.61508C11.9244 5.74791 10.7483 5.26074 9.52193 5.26074ZM9.52193 12.8878C8.72523 12.8878 7.96113 12.5713 7.3978 12.0079C6.83444 11.4445 6.51795 10.6805 6.51795 9.88378C6.51795 9.08708 6.83444 8.32298 7.3978 7.75959C7.96113 7.19623 8.72523 6.87974 9.52193 6.87974C10.3186 6.87974 11.0827 7.19623 11.6461 7.75959C12.2094 8.32298 12.5259 9.08708 12.5259 9.88378C12.5259 10.6805 12.2094 11.4445 11.6461 12.0079C11.0827 12.5713 10.3186 12.8878 9.52193 12.8878Z" fill="white"/>
<path d="M14.329 6.1687C14.9244 6.1687 15.407 5.68607 15.407 5.0907C15.407 4.49534 14.9244 4.0127 14.329 4.0127C13.7336 4.0127 13.251 4.49534 13.251 5.0907C13.251 5.68607 13.7336 6.1687 14.329 6.1687Z" fill="#64F607"/>
<path d="M18.056 3.99467C17.8245 3.39685 17.4707 2.85396 17.0173 2.40073C16.5639 1.94751 16.0209 1.59394 15.423 1.36267C14.7233 1.10003 13.9841 0.958012 13.237 0.942672C12.274 0.900672 11.969 0.888672 9.52695 0.888672C7.0849 0.888672 6.7719 0.888672 5.8169 0.942672C5.07029 0.957232 4.33166 1.09927 3.6329 1.36267C3.03484 1.59367 2.49167 1.94714 2.03824 2.4004C1.58481 2.85366 1.23113 3.3967 0.999902 3.99467C0.737212 4.69429 0.595522 5.43351 0.580902 6.18067C0.537902 7.14267 0.524902 7.44767 0.524902 9.89069C0.524902 12.3327 0.524902 12.6437 0.580902 13.6007C0.595902 14.3487 0.736902 15.0867 0.999902 15.7877C1.23178 16.3854 1.5858 16.9283 2.03934 17.3815C2.49288 17.8347 3.03597 18.1883 3.6339 18.4197C4.33134 18.6929 5.07027 18.8451 5.8189 18.8697C6.7819 18.9117 7.0869 18.9247 9.52895 18.9247C11.971 18.9247 12.284 18.9247 13.239 18.8697C13.9861 18.8545 14.7252 18.7128 15.425 18.4507C16.0227 18.2189 16.5656 17.865 17.0189 17.4117C17.4723 16.9583 17.8261 16.4154 18.058 15.8177C18.321 15.1177 18.462 14.3797 18.477 13.6317C18.52 12.6697 18.533 12.3647 18.533 9.92169C18.533 7.47867 18.533 7.16867 18.477 6.21167C18.4653 5.45395 18.3229 4.70392 18.056 3.99467ZM16.838 13.5267C16.8315 14.103 16.7263 14.6739 16.527 15.2147C16.3768 15.6036 16.1469 15.9567 15.852 16.2514C15.5572 16.546 15.2039 16.7757 14.815 16.9257C14.2802 17.1241 13.7153 17.2293 13.145 17.2367C12.195 17.2807 11.927 17.2917 9.49095 17.2917C7.0529 17.2917 6.8039 17.2917 5.8359 17.2367C5.26583 17.2297 4.70123 17.1245 4.1669 16.9257C3.77659 16.7767 3.4219 16.5474 3.12579 16.2526C2.82968 15.9579 2.59874 15.6043 2.4479 15.2147C2.25135 14.6797 2.14621 14.1155 2.1369 13.5457C2.0939 12.5957 2.0839 12.3277 2.0839 9.89169C2.0839 7.45467 2.0839 7.20567 2.1369 6.23667C2.14337 5.6607 2.24856 5.09009 2.4479 4.54967C2.7529 3.76067 3.3779 3.13967 4.1669 2.83767C4.70149 2.63981 5.26593 2.53464 5.8359 2.52667C6.7869 2.48367 7.0539 2.47167 9.49095 2.47167C11.928 2.47167 12.178 2.47167 13.145 2.52667C13.7154 2.53353 14.2803 2.63874 14.815 2.83767C15.2039 2.98795 15.5571 3.21788 15.8519 3.5127C16.1467 3.80753 16.3767 4.16074 16.527 4.54967C16.7235 5.08462 16.8286 5.64883 16.838 6.21867C16.881 7.16967 16.8919 7.43667 16.8919 9.87369C16.8919 12.3097 16.8919 12.5717 16.849 13.5277H16.838V13.5267Z" fill="white"/>
</svg>
