<svg width="15" height="21" viewBox="0 0 15 21" fill="none" xmlns="http://www.w3.org/2000/svg">
<g filter="url(#filter0_d_421_240)">
<mask id="path-1-inside-1_421_240" fill="white">
<path d="M9.64431 0.998536L11 2.26348L5.91831 6.99854L11 11.7336L9.64046 12.9985L4.56262 8.26348C4.20237 7.92796 4 7.47296 4 6.99854C4 6.52411 4.20237 6.06911 4.56262 5.73359L9.64431 0.998536Z"/>
</mask>
<path d="M9.64431 0.998536L11 2.26348L5.91831 6.99854L11 11.7336L9.64046 12.9985L4.56262 8.26348C4.20237 7.92796 4 7.47296 4 6.99854C4 6.52411 4.20237 6.06911 4.56262 5.73359L9.64431 0.998536Z" fill="white"/>
<path d="M9.64431 0.998536L24.1982 -14.5994L9.65427 -28.1698L-4.89892 -14.6093L9.64431 0.998536ZM11 2.26348L25.5432 17.8714L42.2822 2.27417L25.5539 -13.3345L11 2.26348ZM5.91831 6.99854L-8.62491 -8.60934L-25.3754 6.99853L-8.62491 22.6064L5.91831 6.99854ZM11 11.7336L25.5318 27.3521L42.306 11.745L25.5432 -3.87429L11 11.7336ZM9.64046 12.9985L-4.90865 28.6009L9.62432 42.1528L24.1723 28.617L9.64046 12.9985ZM4.56262 8.26348L19.1117 -7.33891L19.1023 -7.34769L4.56262 8.26348ZM4.56262 5.73359L19.1023 21.3448L19.1058 21.3415L4.56262 5.73359ZM-4.90957 16.5965L-3.55388 17.8614L25.5539 -13.3345L24.1982 -14.5994L-4.90957 16.5965ZM-3.54322 -13.3444L-8.62491 -8.60934L20.4615 22.6064L25.5432 17.8714L-3.54322 -13.3444ZM-8.62491 22.6064L-3.54322 27.3415L25.5432 -3.87429L20.4615 -8.60934L-8.62491 22.6064ZM-3.53183 -3.8849L-4.89136 -2.61995L24.1723 28.617L25.5318 27.3521L-3.53183 -3.8849ZM24.1896 -2.60385L19.1117 -7.3389L-9.98649 23.8659L-4.90865 28.6009L24.1896 -2.60385ZM19.1023 -7.34769C22.8907 -3.81936 25.3333 1.30475 25.3333 6.99854L-17.3333 6.99853C-17.3333 13.6412 -14.4859 19.6753 -9.97707 23.8746L19.1023 -7.34769ZM25.3333 6.99854C25.3333 12.6923 22.8906 17.8164 19.1023 21.3448L-9.97707 -9.87758C-14.4859 -5.67821 -17.3333 0.355899 -17.3333 6.99853L25.3333 6.99854ZM19.1058 21.3415L24.1875 16.6064L-4.89892 -14.6093L-9.9806 -9.87429L19.1058 21.3415Z" fill="#8FF94D" mask="url(#path-1-inside-1_421_240)"/>
</g>
<defs>
<filter id="filter0_d_421_240" x="0" y="0.998535" width="15" height="20" filterUnits="userSpaceOnUse" color-interpolation-filters="sRGB">
<feFlood flood-opacity="0" result="BackgroundImageFix"/>
<feColorMatrix in="SourceAlpha" type="matrix" values="0 0 0 0 0 0 0 0 0 0 0 0 0 0 0 0 0 0 127 0" result="hardAlpha"/>
<feOffset dy="4"/>
<feGaussianBlur stdDeviation="2"/>
<feComposite in2="hardAlpha" operator="out"/>
<feColorMatrix type="matrix" values="0 0 0 0 0 0 0 0 0 0 0 0 0 0 0 0 0 0 0.25 0"/>
<feBlend mode="normal" in2="BackgroundImageFix" result="effect1_dropShadow_421_240"/>
<feBlend mode="normal" in="SourceGraphic" in2="effect1_dropShadow_421_240" result="shape"/>
</filter>
</defs>
</svg>
