<svg width="20" height="19" viewBox="0 0 20 19" fill="none" xmlns="http://www.w3.org/2000/svg">
<path d="M3.09132 5.12698C4.29972 5.12698 5.27932 4.14738 5.27932 2.93898C5.27932 1.73058 4.29972 0.750977 3.09132 0.750977C1.88292 0.750977 0.90332 1.73058 0.90332 2.93898C0.90332 4.14738 1.88292 5.12698 3.09132 5.12698Z" fill="white"/>
<path d="M7.34512 6.78486V18.9239H11.1141V12.9209C11.1141 11.3369 11.4121 9.80287 13.3761 9.80287C15.3131 9.80287 15.3371 11.6139 15.3371 13.0209V18.9249H19.1081V12.2679C19.1081 8.99787 18.4041 6.48486 14.5821 6.48486C12.7471 6.48486 11.5171 7.49186 11.0141 8.44487H10.9631V6.78486H7.34512ZM1.20312 6.78486H4.97813V18.9239H1.20312V6.78486Z" fill="white"/>
</svg>
