<svg width="155" height="43" viewBox="0 0 155 43" fill="none" xmlns="http://www.w3.org/2000/svg">
<path d="M35.729 36.521C35.729 34.4348 36.8703 33.1708 38.8154 33.1708C40.7604 33.1708 41.8956 34.4348 41.8956 36.521V40.4295H40.6807V38.4783H36.9439V40.4295H35.729V36.521ZM40.6807 37.2941V36.521C40.6807 35.1588 39.9934 34.3489 38.8154 34.3489C37.6373 34.3489 36.9439 35.1588 36.9439 36.521V37.2941H40.6807Z" fill="white"/>
<path d="M48.3387 42.3622H47.1606V39.6379C46.7434 40.3067 46.0193 40.546 45.4058 40.546C44.0129 40.546 43.0005 39.6011 43.0005 37.8524C43.0005 36.1036 44.1786 34.9255 45.9457 34.9255C46.7925 34.9255 47.8172 35.2753 48.3387 35.8214V42.3561V42.3622ZM47.1606 37.7296V36.2325C46.8047 36.0423 46.4059 35.9502 45.9028 35.9502C44.7553 35.9502 44.2338 36.6865 44.2338 37.8524C44.2338 38.8832 44.7185 39.5029 45.7003 39.5029C46.6145 39.5029 47.1606 38.7114 47.1606 37.7296Z" fill="white"/>
<path d="M49.5166 38.006V35.0424H50.6947V38.006C50.6947 38.9816 51.1794 39.405 51.9771 39.405C52.7748 39.405 53.2718 38.9816 53.2718 38.006V35.0424H54.4499V38.006C54.4499 39.6197 53.5233 40.5462 51.9771 40.5462C50.4308 40.5462 49.5166 39.6197 49.5166 38.006Z" fill="white"/>
<path d="M55.6953 34.3795V33.1708H57.0207V34.3795H55.6953ZM55.7751 40.4295V35.0422H56.9532V40.4295H55.7751Z" fill="white"/>
<path d="M60.6713 38.5765V36.1467H59.8921V35.3245L60.6713 35.0423L60.9597 33.901H61.8494V35.0423H63.6043V36.1406H61.8494V38.552C61.8494 39.2085 62.1071 39.4233 62.7085 39.4233C63.0091 39.4233 63.2484 39.3742 63.5123 39.2576V40.3069C63.2791 40.4541 62.776 40.54 62.4323 40.54C61.4751 40.54 60.6775 40.0492 60.6775 38.5704L60.6713 38.5765Z" fill="white"/>
<path d="M64.1201 37.7358C64.1201 36.1036 65.108 34.9255 66.8015 34.9255C68.495 34.9255 69.3602 36.0668 69.3602 37.7358C69.3602 37.926 69.3418 38.0732 69.3111 38.2573H65.3902C65.4761 39.0673 66.194 39.4845 67.0224 39.4845C67.7157 39.4845 68.1453 39.3495 68.7036 39.0489L69.1454 39.9876C68.5564 40.3558 67.8937 40.546 66.9365 40.546C65.1203 40.546 64.1201 39.4047 64.1201 37.7358ZM68.1575 37.3124C68.1269 36.4718 67.7035 35.987 66.8076 35.987C65.9609 35.987 65.4271 36.4902 65.4271 37.3124H68.1575Z" fill="white"/>
<path d="M70.4033 40.4295V35.0422H71.428L71.5262 35.9809C71.8943 35.2385 72.5386 34.9194 73.2995 34.9194C74.0112 34.9194 74.6616 35.2508 75.0114 35.9809C75.3366 35.3796 75.8581 34.9194 76.9319 34.9194C78.1898 34.9194 79.0672 35.7416 79.0672 37.3922V40.4356H77.8891V37.3677C77.8891 36.4964 77.4535 36.073 76.6619 36.073C75.7477 36.073 75.3182 36.7479 75.3182 37.6683V40.4417H74.1401V37.3738C74.1401 36.5025 73.7044 36.0791 72.9252 36.0791C72.0109 36.0791 71.5814 36.7541 71.5814 37.7174V40.4417H70.4033V40.4295Z" fill="white"/>
<path d="M82.2393 37.7358C82.2393 36.1036 83.178 34.9255 84.982 34.9255C85.8103 34.9255 86.4669 35.1403 86.9823 35.5453L86.4239 36.4841C85.9147 36.165 85.5833 36.0668 85.0802 36.0668C83.9205 36.0668 83.4787 36.754 83.4787 37.7358C83.4787 38.7175 83.8775 39.4047 85.0802 39.4047C85.5895 39.4047 85.9699 39.3004 86.5467 38.9629L87.0805 39.9263C86.4362 40.3435 85.7981 40.546 84.89 40.546C83.1351 40.546 82.2454 39.3679 82.2454 37.7358H82.2393Z" fill="#64F607"/>
<path d="M87.9639 35.0422H88.9702L89.0683 35.9809C89.4733 35.1771 90.0501 34.9194 90.7189 34.9194C90.8171 34.9194 91.0379 34.9378 91.2097 34.9992V36.2325C90.86 36.1343 90.5655 36.1343 90.455 36.1343C89.6267 36.1343 89.142 36.7786 89.142 37.7481V40.4295H87.9639V35.0422Z" fill="#64F607"/>
<path d="M91.6519 37.7359C91.6519 36.1037 92.6336 34.9256 94.3332 34.9256C96.0329 34.9256 96.8919 36.0669 96.8919 37.7359C96.8919 37.9261 96.8735 38.0733 96.8428 38.2574H92.922C93.0079 39.0673 93.7258 39.4846 94.5541 39.4846C95.2475 39.4846 95.677 39.3496 96.2354 39.0489L96.6771 39.9877C96.0881 40.3559 95.4254 40.5461 94.4682 40.5461C92.652 40.5461 91.6519 39.4048 91.6519 37.7359ZM95.6893 37.3125C95.6586 36.4719 95.2352 35.9871 94.3394 35.9871C93.4926 35.9871 92.9588 36.4903 92.9588 37.3125H95.6893ZM94.683 32.7106H96.0697L94.5848 34.3918H93.5417L94.683 32.7106Z" fill="#64F607"/>
<path d="M102.064 40.5462C101.966 40.2455 101.88 39.9387 101.844 39.5522C101.426 40.2885 100.678 40.5462 100.027 40.5462C98.6406 40.5462 97.6221 39.6013 97.6221 37.8525C97.6221 36.1038 98.8002 34.9196 100.567 34.9196C100.96 34.9196 101.39 34.9994 101.782 35.1221V33.4838L102.96 33.177V38.5459C102.96 39.3252 102.973 39.8283 103.126 40.5523H102.064V40.5462ZM101.782 37.7298V36.1836C101.475 36.0179 101.12 35.9443 100.53 35.9443C99.3647 35.9443 98.8615 36.7358 98.8615 37.8587C98.8615 38.8895 99.3462 39.5092 100.26 39.5092C101.242 39.5092 101.788 38.7177 101.788 37.736L101.782 37.7298Z" fill="#64F607"/>
<path d="M104.334 34.3795V33.1708H105.66V34.3795H104.334ZM104.414 40.4295V35.0422H105.592V40.4295H104.414Z" fill="#64F607"/>
<path d="M107.157 38.5765V36.1467H106.378V35.3245L107.157 35.0423L107.446 33.901H108.335V35.0423H110.09V36.1406H108.335V38.552C108.335 39.2085 108.593 39.4233 109.194 39.4233C109.495 39.4233 109.734 39.3742 109.998 39.2576V40.3069C109.765 40.4541 109.262 40.54 108.918 40.54C107.961 40.54 107.163 40.0492 107.163 38.5704L107.157 38.5765Z" fill="#64F607"/>
<path d="M110.599 37.7358C110.599 36.0668 111.526 34.9255 113.458 34.9255C115.391 34.9255 116.318 36.0668 116.318 37.7358C116.318 39.4047 115.391 40.546 113.458 40.546C111.526 40.546 110.599 39.4047 110.599 37.7358ZM115.078 37.7358C115.078 36.7233 114.637 36.0668 113.458 36.0668C112.28 36.0668 111.839 36.7233 111.839 37.7358C111.839 38.7482 112.28 39.4047 113.458 39.4047C114.637 39.4047 115.078 38.7482 115.078 37.7358Z" fill="#64F607"/>
<path d="M117.109 38.8589H118.607V40.4297H117.109V38.8589Z" fill="#64F607"/>
<path fill-rule="evenodd" clip-rule="evenodd" d="M47.3074 27.5993L46.6079 30.3237H50.5471L49.9888 27.5809C49.5838 27.6177 49.1666 27.6362 48.7371 27.6362C48.2707 27.6362 47.7983 27.6239 47.3135 27.5993" fill="white"/>
<path fill-rule="evenodd" clip-rule="evenodd" d="M47.3936 7.13637L46.6021 4.05615H50.5413L49.9216 7.08728C49.535 7.06274 49.173 7.0566 48.8232 7.0566C48.3201 7.0566 47.8476 7.08114 47.3936 7.13637Z" fill="white"/>
<path d="M63.9175 26.5564V17.2482C63.9175 13.7508 65.703 11.6339 68.8385 11.6339C71.5137 11.6339 73.0293 13.0513 73.0293 15.9597V26.5564H77.0544V15.9597C77.0544 10.4435 73.9865 7.73762 70.0227 7.73762C67.0836 7.73762 64.9729 8.89117 63.8807 11.2044V1.73059L59.8862 2.78596V26.5564H63.9114H63.9175ZM48.7312 26.9552C53.4497 26.9552 56.1924 24.642 56.1924 21.1752C56.1924 17.3464 53.1552 16.0579 49.3939 15.1314C47.6083 14.7018 46.1603 14.303 46.1603 13.1188C46.1603 12.2291 47.0193 11.6339 48.8355 11.6339C50.124 11.6339 52.2716 11.8978 53.9528 12.5911L55.407 9.32068C53.0631 8.00146 50.6517 7.73762 48.8355 7.73762C44.5097 7.73762 42.0676 9.88518 42.0676 13.1863C42.0676 17.0151 45.0067 18.3036 48.4735 19.0951C50.124 19.4572 52.1059 19.9542 52.1059 21.2734C52.1059 22.2981 50.9156 23.0589 48.7373 23.0589C47.0868 23.0589 45.1724 22.8626 43.3868 21.6047L41.5031 25.004C43.6814 26.6852 46.3566 26.9491 48.7312 26.9491V26.9552ZM27.1758 23.0589C23.9054 23.0589 22.2549 21.1138 22.2549 17.5121C22.2549 13.714 23.8747 11.5051 27.501 11.5051C29.4829 11.5051 30.9985 11.9346 32.2563 12.8918V17.3157C32.2563 20.6843 30.5076 23.0589 27.1697 23.0589H27.1758ZM37.9688 23.0589C36.8153 23.0589 36.2876 22.6294 36.2876 21.1445V8.13645H33.1829L32.7227 9.45567C31.2378 8.36348 29.3909 7.73762 27.1758 7.73762C21.8928 7.73762 18.0334 11.1369 18.0334 17.5121C18.0334 23.8873 21.4695 26.9552 26.5193 26.9552C29.4891 26.9552 31.3728 25.4028 32.4281 23.7216C33.054 26.2619 35.1709 26.9552 36.6558 26.9552C38.1407 26.9552 39.3617 26.36 39.828 25.8017V22.206C39.0672 22.8687 38.5088 23.0651 37.9811 23.0651L37.9688 23.0589ZM9.05043 26.9552C12.1552 26.9552 14.3334 26.2619 16.5423 24.8445L14.7261 21.5434C12.7442 22.6969 11.4557 23.0651 9.70697 23.0651C5.57752 23.0651 4.22762 20.7212 4.22762 17.3526C4.22762 13.984 5.74932 11.64 9.70697 11.64C11.425 11.64 12.5479 11.9714 14.2966 13.0574L16.211 9.8545C14.4623 8.46779 12.2165 7.74376 9.37563 7.74376C3.20293 7.73762 0 11.7689 0 17.3464C0 22.9239 3.03726 26.9552 9.04429 26.9552H9.05043Z" fill="white"/>
<path d="M117.128 22.1998V25.7955C116.668 26.3538 115.447 26.949 113.956 26.949C112.465 26.949 110.36 26.2556 109.728 23.7154C108.673 25.3966 106.789 26.949 103.819 26.949C98.7696 26.949 95.3335 23.7154 95.3335 17.5059C95.3335 11.2964 99.193 7.73141 104.476 7.73141C106.685 7.73141 108.538 8.35727 110.023 9.44946L110.483 8.13025H113.588V21.1383C113.588 22.6232 114.115 23.0527 115.269 23.0527C115.797 23.0527 116.361 22.8564 117.116 22.1937L117.128 22.1998ZM109.569 17.3157V12.8917C108.317 11.9345 106.795 11.505 104.813 11.505C101.181 11.505 99.5673 13.7139 99.5673 17.512C99.5673 21.1076 101.218 23.0589 104.488 23.0589C107.759 23.0589 109.575 20.6843 109.575 17.3157H109.569ZM102.04 5.89065L105.936 0.147461H110.692L105.605 5.89065H102.04Z" fill="#64F607"/>
<path d="M118.551 17.3465C118.551 11.7689 121.754 7.73767 127.927 7.73767C130.768 7.73767 133.014 8.46171 134.762 9.84842L132.848 13.0513C131.099 11.9592 129.976 11.634 128.258 11.634C124.294 11.634 122.779 13.9779 122.779 17.3465C122.779 20.7151 124.135 23.059 128.258 23.059C130.007 23.059 131.296 22.697 133.277 21.5434L135.094 24.8445C132.879 26.2619 130.7 26.9553 127.602 26.9553C121.595 26.9553 118.557 22.9301 118.557 17.3465H118.551Z" fill="#64F607"/>
<path d="M137.861 5.86004V1.73059H142.383V5.86004H137.861ZM138.125 26.5564V8.13645H142.15V26.5564H138.125Z" fill="#64F607"/>
<path d="M146.776 22.1999V2.78596L150.802 1.73059V21.1445C150.802 22.6294 151.329 23.0589 152.483 23.0589C153.01 23.0589 153.575 22.8626 154.33 22.1999V25.7955C153.87 26.3539 152.648 26.9491 151.157 26.9491C149.409 26.9491 146.764 25.9919 146.764 22.1938L146.776 22.1999Z" fill="#64F607"/>
<path d="M83.6195 27.0102H87.6446V12.597H93.3571V8.83573H87.6446V8.14237C87.6446 5.92732 88.9332 4.81059 91.4734 4.81059C92.9583 4.81059 93.8848 5.00694 95.069 5.40577V2.09239C94.0812 1.69356 92.7558 1.33154 91.1421 1.33154C85.5952 1.33154 83.6133 4.89649 83.6133 8.46144V9.0873L80.8706 10.0752V12.5848H83.6133V26.9979L83.6195 27.0102Z" fill="#64F607"/>
</svg>
