<svg width="176" height="35" viewBox="0 0 176 35" fill="none" xmlns="http://www.w3.org/2000/svg">
<path fill-rule="evenodd" clip-rule="evenodd" d="M72.8925 19.502V30.1171H72.8855H68.2952V3.00898L72.8505 1.80542V12.6095C74.0961 9.97145 76.5032 8.65593 79.855 8.65593C84.3754 8.65593 87.8741 11.7418 87.8741 18.0325V30.1171H83.2837V18.0325C83.2837 14.7157 81.5554 13.0993 78.5045 13.0993C74.9288 13.0993 72.8925 15.5134 72.8925 19.502ZM64.0827 23.9804C64.0827 27.9339 60.9549 30.572 55.5738 30.572V30.565C52.8658 30.565 49.8149 30.2641 47.3308 28.3468L49.479 24.4702C51.5153 25.9047 53.6985 26.1286 55.5808 26.1286C58.0649 26.1286 59.4224 25.2609 59.4224 24.0923C59.4224 22.5879 57.1622 22.0211 55.2799 21.6082C51.3264 20.7056 47.9746 19.2361 47.9746 14.8697C47.9746 11.105 50.7596 8.65593 55.6928 8.65593C57.764 8.65593 60.514 8.95682 63.187 10.4613L61.5287 14.1909C59.6113 13.4002 57.1622 13.0993 55.6928 13.0993C53.6215 13.0993 52.6419 13.7781 52.6419 14.7927C52.6419 16.1432 54.2933 16.598 56.3295 17.0879C60.619 18.1445 64.0827 19.614 64.0827 23.9804ZM25.3798 19.8029C25.3798 23.9091 27.2609 26.1271 30.9881 26.1286C34.7925 26.127 36.7856 23.4194 36.7856 19.579V14.5338C35.3512 13.4422 33.6228 12.9524 31.3626 12.9524C27.2271 12.9524 25.3798 15.4715 25.3798 19.8029ZM41.383 23.9454C41.383 25.6388 41.9848 26.1286 43.3003 26.1286L43.3143 26.1356C43.916 26.1356 44.5528 25.9117 45.4205 25.1559V29.2565C44.8887 29.8932 43.4962 30.572 41.8028 30.572C40.1094 30.572 37.6953 29.7813 36.9816 26.8843C35.778 28.8016 33.6298 30.572 30.243 30.572C24.4841 30.572 20.5655 27.0732 20.5655 19.8029C20.5655 12.5325 24.9669 8.65593 30.9917 8.65593C33.5178 8.65593 35.6241 9.36967 37.3174 10.6152L37.8423 9.11077H41.383V23.9454ZM18.8651 28.1648C16.3461 29.7813 13.862 30.572 10.3213 30.572H10.3143C3.46374 30.572 0 25.9746 0 19.614C0 13.2533 3.65267 8.65593 10.6921 8.66293C13.9319 8.66293 16.493 9.48863 18.4873 11.0701L16.3041 14.7227C14.3098 13.4842 13.0293 13.1063 11.07 13.1063C6.55662 13.1063 4.82125 15.7793 4.82125 19.6209C4.82125 23.4626 6.36069 26.1356 11.07 26.1356C13.0643 26.1356 14.5337 25.7157 16.7939 24.4002L18.8651 28.1648ZM54.0485 7.97021L53.1458 4.45749H57.6382L56.9314 7.91423C56.4906 7.88624 56.0777 7.87924 55.6789 7.87924C55.1051 7.87924 54.5663 7.90723 54.0485 7.97021ZM53.9504 31.3066L53.1527 34.4134H57.6451L57.0083 31.2856C56.5465 31.3275 56.0707 31.3485 55.5809 31.3485C55.049 31.3485 54.5102 31.3345 53.9574 31.3066H53.9504Z" fill="white"/>
<path fill-rule="evenodd" clip-rule="evenodd" d="M133.574 25.1489V29.2494C133.05 29.8861 131.657 30.5649 129.957 30.5649C128.256 30.5649 125.856 29.7742 125.135 26.8772C123.932 28.7945 121.784 30.5649 118.397 30.5649C112.638 30.5649 108.719 26.8772 108.719 19.7958C108.719 12.7144 113.121 8.64886 119.146 8.64886C121.665 8.64886 123.778 9.3626 125.471 10.6081L125.996 9.10369H129.537V23.9383C129.537 25.6317 130.139 26.1215 131.454 26.1215C132.056 26.1215 132.7 25.8976 133.56 25.1419L133.574 25.1489ZM124.953 19.5789V14.5337C123.526 13.4421 121.791 12.9523 119.53 12.9523C115.388 12.9523 113.548 15.4714 113.548 19.8028C113.548 23.9033 115.43 26.1285 119.16 26.1285C122.889 26.1285 124.96 23.4205 124.96 19.5789H124.953ZM116.368 6.54962L120.811 0H126.234L120.433 6.54962H116.368ZM135.198 19.6139C135.198 13.2532 138.85 8.65591 145.89 8.65591C149.129 8.65591 151.691 9.48161 153.685 11.063L151.502 14.7157C149.507 13.4702 148.227 13.0993 146.268 13.0993C141.747 13.0993 140.019 15.7723 140.019 19.6139C140.019 23.4555 141.565 26.1286 146.268 26.1286C148.262 26.1286 149.731 25.7157 151.991 24.4002L154.063 28.1648C151.537 29.7812 149.053 30.572 145.519 30.572C138.668 30.572 135.205 25.9816 135.205 19.6139H135.198ZM157.219 1.80546V6.51475H162.376V1.80546H157.219ZM157.52 9.1108V30.1172H162.11V9.1108H157.52ZM167.386 25.149V3.00902L171.976 1.80546V23.9454C171.976 25.6388 172.578 26.1286 173.894 26.1286C174.495 26.1286 175.139 25.9047 176 25.149V29.2495C175.475 29.8863 174.083 30.565 172.382 30.565C170.388 30.565 167.372 29.4734 167.372 25.142L167.386 25.149ZM99.9513 30.6348H95.3609L95.3539 30.6208V14.1837H92.2261V11.3218L95.3539 10.1952V9.48145C95.3539 5.41592 97.6141 1.3504 103.94 1.3504C105.78 1.3504 107.292 1.76325 108.418 2.21808V5.99671C107.068 5.54188 106.011 5.31796 104.318 5.31796C101.421 5.31796 99.9513 6.5915 99.9513 9.11758V9.90829H106.466V14.1977H99.9513V30.6348Z" fill="#64F607"/>
</svg>
