<svg width="16" height="18" viewBox="0 0 16 18" fill="none" xmlns="http://www.w3.org/2000/svg">
<path fill-rule="evenodd" clip-rule="evenodd" d="M7.66666 2.1748C4.35477 2.1748 1.75 4.68017 1.75 7.6548C1.75 10.6362 3.83939 13.0253 6.87049 13.1757C7.26977 13.1955 7.58333 13.525 7.58333 13.9248V15.2257C8.99114 14.4911 10.3472 13.5758 11.413 12.4818C12.7382 11.1214 13.5833 9.52065 13.5833 7.6548C13.5833 4.68017 10.9786 2.1748 7.66666 2.1748ZM0.25 7.6548C0.25 3.75778 3.62355 0.674805 7.66666 0.674805C11.7098 0.674805 15.0833 3.75778 15.0833 7.6548C15.0833 10.0182 14.0009 11.9749 12.4874 13.5285C10.9804 15.0754 9.01549 16.2577 7.1434 17.1077C6.91127 17.2131 6.64148 17.1934 6.42716 17.0553C6.21284 16.9172 6.08333 16.6797 6.08333 16.4248V14.6044C2.58484 14.0911 0.25 11.1416 0.25 7.6548Z" fill="#64F607"/>
</svg>
