<svg width="160" height="322" viewBox="0 0 160 322" fill="none" xmlns="http://www.w3.org/2000/svg">
<mask id="path-1-inside-1_1024_550" fill="white">
<path fill-rule="evenodd" clip-rule="evenodd" d="M42.4855 0L52.1848 37.7444C57.7487 37.0677 63.5382 36.7669 69.7036 36.7669C73.9893 36.7669 78.4254 36.8421 83.1622 37.1428L90.7562 0H42.4855ZM42.5584 321.878L51.1299 288.495H51.2051C57.1449 288.796 62.9344 288.946 68.6487 288.946C73.9118 288.946 79.0246 288.72 83.987 288.269L90.8291 321.878H42.5584ZM160 209.773C160 252.255 126.391 280.601 68.5714 280.601V280.525C39.4737 280.525 6.69172 277.292 -20 256.691L3.08271 215.037C24.9624 230.45 48.421 232.856 68.6466 232.856C95.3383 232.856 109.925 223.533 109.925 210.976C109.925 194.811 85.6391 188.721 65.4135 184.285C22.9324 174.585 -13.0827 158.796 -13.0827 111.879C-13.0827 71.4276 16.8421 45.1118 69.8496 45.1118C92.1052 45.1118 121.654 48.3449 150.376 64.5103L132.556 104.586C111.955 96.0893 85.6391 92.8562 69.8496 92.8562C47.594 92.8562 37.0677 100.149 37.0677 111.052C37.0677 125.563 54.812 130.45 76.6917 135.713C122.782 147.067 160 162.856 160 209.773Z"/>
</mask>
<path d="M52.1848 37.7444L51.2162 37.9932L51.4346 38.843L52.3055 38.737L52.1848 37.7444ZM42.4855 0V-1H41.196L41.517 0.248886L42.4855 0ZM83.1622 37.1428L83.0989 38.1408L83.9676 38.196L84.142 37.3432L83.1622 37.1428ZM90.7562 0L91.736 0.20031L91.9814 -1H90.7562V0ZM51.1299 288.495V287.495H50.3542L50.1613 288.246L51.1299 288.495ZM42.5584 321.878L41.5899 321.629L41.2692 322.878H42.5584V321.878ZM51.2051 288.495L51.2556 287.496L51.2304 287.495H51.2051V288.495ZM83.987 288.269L84.9669 288.07L84.7883 287.192L83.8965 287.273L83.987 288.269ZM90.8291 321.878V322.878H92.0532L91.809 321.679L90.8291 321.878ZM68.5714 280.601H67.5714V281.601H68.5714V280.601ZM68.5714 280.525H69.5714V279.525H68.5714V280.525ZM-20 256.691L-20.8747 256.206L-21.2911 256.957L-20.611 257.482L-20 256.691ZM3.08271 215.037L3.65862 214.219L2.74796 213.578L2.20803 214.552L3.08271 215.037ZM65.4135 184.285L65.1909 185.26L65.1993 185.262L65.4135 184.285ZM150.376 64.5103L151.29 64.9166L151.659 64.0852L150.866 63.6389L150.376 64.5103ZM132.556 104.586L132.175 105.51L133.075 105.881L133.47 104.992L132.556 104.586ZM76.6917 135.713L76.9309 134.742L76.9256 134.741L76.6917 135.713ZM53.1533 37.4955L43.454 -0.248886L41.517 0.248886L51.2162 37.9932L53.1533 37.4955ZM69.7036 35.7669C63.5058 35.7669 57.6752 36.0692 52.064 36.7517L52.3055 38.737C57.8221 38.0661 63.5705 37.7669 69.7036 37.7669V35.7669ZM83.2256 36.1449C78.4599 35.8423 74.0009 35.7669 69.7036 35.7669V37.7669C73.9777 37.7669 78.3909 37.8419 83.0989 38.1408L83.2256 36.1449ZM89.7765 -0.20031L82.1825 36.9425L84.142 37.3432L91.736 0.20031L89.7765 -0.20031ZM42.4855 1H90.7562V-1H42.4855V1ZM50.1613 288.246L41.5899 321.629L43.527 322.127L52.0984 288.743L50.1613 288.246ZM51.2051 287.495H51.1299V289.495H51.2051V287.495ZM68.6487 287.946C62.952 287.946 57.1794 287.796 51.2556 287.496L51.1545 289.493C57.1104 289.795 62.9167 289.946 68.6487 289.946V287.946ZM83.8965 287.273C78.9658 287.722 73.8833 287.946 68.6487 287.946V289.946C73.9404 289.946 79.0834 289.719 84.0776 289.265L83.8965 287.273ZM91.809 321.679L84.9669 288.07L83.0071 288.469L89.8492 322.078L91.809 321.679ZM42.5584 322.878H90.8291V320.878H42.5584V322.878ZM68.5714 281.601C97.6328 281.601 120.733 274.478 136.589 261.901C152.471 249.305 161 231.303 161 209.773H159C159 230.725 150.725 248.137 135.347 260.334C119.944 272.55 97.3295 279.601 68.5714 279.601V281.601ZM67.5714 280.525V280.601H69.5714V280.525H67.5714ZM-20.611 257.482C6.35782 278.298 39.4307 281.525 68.5714 281.525V279.525C39.5166 279.525 7.02563 276.287 -19.389 255.899L-20.611 257.482ZM2.20803 214.552L-20.8747 256.206L-19.1253 257.175L3.95738 215.521L2.20803 214.552ZM68.6466 231.856C48.4953 231.856 25.287 229.456 3.65862 214.219L2.5068 215.854C24.6378 231.445 48.3468 233.856 68.6466 233.856V231.856ZM108.925 210.976C108.925 216.799 105.565 221.978 98.8075 225.752C92.0265 229.539 81.895 231.856 68.6466 231.856V233.856C82.0899 233.856 92.5976 231.511 99.7827 227.498C106.992 223.472 110.925 217.71 110.925 210.976H108.925ZM65.1993 185.262C75.3265 187.483 86.3434 190.094 94.8236 194.135C103.338 198.192 108.925 203.503 108.925 210.976H110.925C110.925 202.284 104.369 196.468 95.6839 192.329C86.9648 188.175 75.7261 185.523 65.6278 183.308L65.1993 185.262ZM-14.0827 111.879C-14.0827 135.646 -4.93598 151.616 9.62477 162.831C24.1203 173.995 43.9262 180.405 65.191 185.26L65.6361 183.31C44.4197 178.466 24.9774 172.131 10.8451 161.246C-3.22193 150.412 -12.0827 135.028 -12.0827 111.879H-14.0827ZM69.8496 44.1118C43.1918 44.1118 22.2078 50.7285 7.86933 62.5547C-6.49193 74.3996 -14.0827 91.3869 -14.0827 111.879H-12.0827C-12.0827 91.9194 -4.71112 75.5233 9.1419 64.0976C23.0177 52.653 43.4999 46.1118 69.8496 46.1118V44.1118ZM150.866 63.6389C121.937 47.3567 92.1957 44.1118 69.8496 44.1118V46.1118C92.0147 46.1118 121.371 49.3331 149.885 65.3818L150.866 63.6389ZM133.47 104.992L151.29 64.9166L149.462 64.104L131.643 104.179L133.47 104.992ZM69.8496 93.8562C85.5507 93.8562 111.728 97.0776 132.175 105.51L132.938 103.661C112.181 95.101 85.7275 91.8562 69.8496 91.8562V93.8562ZM38.0677 111.052C38.0677 105.989 40.4815 101.752 45.62 98.7274C50.8149 95.6699 58.8058 93.8562 69.8496 93.8562V91.8562C58.6378 91.8562 50.2376 93.689 44.6056 97.0038C38.917 100.352 36.0677 105.212 36.0677 111.052H38.0677ZM76.9256 134.741C65.9581 132.103 56.1767 129.59 49.1327 125.962C42.1236 122.351 38.0677 117.773 38.0677 111.052H36.0677C36.0677 118.841 40.884 123.963 48.2169 127.74C55.515 131.499 65.5456 134.061 76.4579 136.686L76.9256 134.741ZM161 209.773C161 185.99 151.539 170.019 136.227 158.605C120.987 147.244 99.9864 140.422 76.9309 134.742L76.4526 136.684C99.4873 142.358 120.141 149.107 135.032 160.209C149.852 171.257 159 186.64 159 209.773H161Z" fill="url(#paint0_linear_1024_550)" mask="url(#path-1-inside-1_1024_550)"/>
<defs>
<linearGradient id="paint0_linear_1024_550" x1="70" y1="0" x2="70" y2="321.878" gradientUnits="userSpaceOnUse">
<stop stop-color="#64F607"/>
<stop offset="1" stop-color="#64F607" stop-opacity="0"/>
</linearGradient>
</defs>
</svg>
