<svg width="122" height="322" viewBox="0 0 122 322" fill="none" xmlns="http://www.w3.org/2000/svg">
<mask id="path-1-inside-1_1024_614" fill="white">
<path fill-rule="evenodd" clip-rule="evenodd" d="M62.4855 0L72.1848 37.7444C77.7487 37.0677 83.5382 36.7669 89.7036 36.7669C93.9893 36.7669 98.4254 36.8421 103.162 37.1428L110.756 0H62.4855ZM62.5584 321.878L71.1299 288.495H71.2051C77.1449 288.796 82.9344 288.946 88.6487 288.946C93.9118 288.946 99.0246 288.72 103.987 288.269L110.829 321.878H62.5584ZM180 209.773C180 252.255 146.391 280.6 88.5714 280.6V280.525C59.4737 280.525 26.6917 277.292 0 256.691L23.0827 215.037C44.9624 230.45 68.421 232.856 88.6466 232.856C115.338 232.856 129.925 223.533 129.925 210.976C129.925 194.811 105.639 188.721 85.4135 184.285C42.9324 174.585 6.91727 158.796 6.91727 111.879C6.91727 71.4276 36.8421 45.1118 89.8496 45.1118C112.105 45.1118 141.654 48.3449 170.376 64.5103L152.556 104.586C131.955 96.0893 105.639 92.8562 89.8496 92.8562C67.594 92.8562 57.0677 100.149 57.0677 111.052C57.0677 125.563 74.812 130.45 96.6917 135.713C142.782 147.067 180 162.856 180 209.773Z"/>
</mask>
<path d="M72.1848 37.7444L71.2162 37.9932L71.4346 38.843L72.3055 38.737L72.1848 37.7444ZM62.4855 0V-1H61.196L61.517 0.248886L62.4855 0ZM103.162 37.1428L103.099 38.1408L103.968 38.196L104.142 37.3432L103.162 37.1428ZM110.756 0L111.736 0.20031L111.981 -1H110.756V0ZM71.1299 288.495V287.495H70.3542L70.1613 288.246L71.1299 288.495ZM62.5584 321.878L61.5899 321.629L61.2692 322.878H62.5584V321.878ZM71.2051 288.495L71.2556 287.496L71.2304 287.495H71.2051V288.495ZM103.987 288.269L104.967 288.07L104.788 287.192L103.896 287.273L103.987 288.269ZM110.829 321.878V322.878H112.053L111.809 321.679L110.829 321.878ZM88.5714 280.6H87.5714V281.6H88.5714V280.6ZM88.5714 280.525H89.5714V279.525H88.5714V280.525ZM0 256.691L-0.874678 256.206L-1.29108 256.957L-0.611003 257.482L0 256.691ZM23.0827 215.037L23.6586 214.219L22.748 213.578L22.208 214.552L23.0827 215.037ZM85.4135 184.285L85.1909 185.26L85.1993 185.262L85.4135 184.285ZM170.376 64.5103L171.29 64.9166L171.659 64.0852L170.866 63.6389L170.376 64.5103ZM152.556 104.586L152.175 105.51L153.075 105.881L153.47 104.992L152.556 104.586ZM96.6917 135.713L96.9309 134.742L96.9256 134.741L96.6917 135.713ZM73.1533 37.4955L63.454 -0.248886L61.517 0.248886L71.2162 37.9932L73.1533 37.4955ZM89.7036 35.7669C83.5058 35.7669 77.6752 36.0692 72.064 36.7517L72.3055 38.737C77.8221 38.0661 83.5705 37.7669 89.7036 37.7669V35.7669ZM103.226 36.1449C98.4599 35.8423 94.0009 35.7669 89.7036 35.7669V37.7669C93.9777 37.7669 98.3909 37.8419 103.099 38.1408L103.226 36.1449ZM109.776 -0.20031L102.182 36.9425L104.142 37.3432L111.736 0.20031L109.776 -0.20031ZM62.4855 1H110.756V-1H62.4855V1ZM70.1613 288.246L61.5899 321.629L63.527 322.127L72.0984 288.743L70.1613 288.246ZM71.2051 287.495H71.1299V289.495H71.2051V287.495ZM88.6487 287.946C82.952 287.946 77.1794 287.796 71.2556 287.496L71.1545 289.493C77.1104 289.795 82.9167 289.946 88.6487 289.946V287.946ZM103.896 287.273C98.9658 287.722 93.8833 287.946 88.6487 287.946V289.946C93.9404 289.946 99.0834 289.719 104.078 289.265L103.896 287.273ZM111.809 321.679L104.967 288.07L103.007 288.469L109.849 322.078L111.809 321.679ZM62.5584 322.878H110.829V320.878H62.5584V322.878ZM88.5714 281.6C117.633 281.6 140.733 274.478 156.589 261.901C172.471 249.305 181 231.303 181 209.773H179C179 230.725 170.725 248.137 155.347 260.334C139.944 272.55 117.33 279.6 88.5714 279.6V281.6ZM87.5714 280.525V280.6H89.5714V280.525H87.5714ZM-0.611003 257.482C26.3578 278.298 59.4307 281.525 88.5714 281.525V279.525C59.5166 279.525 27.0256 276.287 0.611003 255.899L-0.611003 257.482ZM22.208 214.552L-0.874678 256.206L0.874678 257.175L23.9574 215.521L22.208 214.552ZM88.6466 231.856C68.4953 231.856 45.287 229.456 23.6586 214.219L22.5068 215.854C44.6378 231.445 68.3468 233.856 88.6466 233.856V231.856ZM128.925 210.976C128.925 216.799 125.565 221.978 118.807 225.752C112.026 229.539 101.895 231.856 88.6466 231.856V233.856C102.09 233.856 112.598 231.511 119.783 227.498C126.992 223.472 130.925 217.71 130.925 210.976H128.925ZM85.1993 185.262C95.3265 187.483 106.343 190.094 114.824 194.135C123.338 198.192 128.925 203.503 128.925 210.976H130.925C130.925 202.284 124.369 196.468 115.684 192.329C106.965 188.175 95.7261 185.523 85.6278 183.308L85.1993 185.262ZM5.91727 111.879C5.91727 135.646 15.064 151.616 29.6248 162.831C44.1203 173.995 63.9262 180.405 85.191 185.26L85.6361 183.31C64.4197 178.466 44.9774 172.131 30.8451 161.246C16.7781 150.412 7.91727 135.028 7.91727 111.879H5.91727ZM89.8496 44.1118C63.1918 44.1118 42.2078 50.7285 27.8693 62.5547C13.5081 74.3996 5.91727 91.3869 5.91727 111.879H7.91727C7.91727 91.9194 15.2889 75.5233 29.1419 64.0976C43.0177 52.653 63.4999 46.1118 89.8496 46.1118V44.1118ZM170.866 63.6389C141.937 47.3567 112.196 44.1118 89.8496 44.1118V46.1118C112.015 46.1118 141.371 49.3331 169.885 65.3818L170.866 63.6389ZM153.47 104.992L171.29 64.9166L169.462 64.104L151.643 104.179L153.47 104.992ZM89.8496 93.8562C105.551 93.8562 131.728 97.0776 152.175 105.51L152.938 103.661C132.181 95.101 105.727 91.8562 89.8496 91.8562V93.8562ZM58.0677 111.052C58.0677 105.989 60.4815 101.752 65.62 98.7274C70.8149 95.6699 78.8058 93.8562 89.8496 93.8562V91.8562C78.6378 91.8562 70.2376 93.689 64.6056 97.0038C58.917 100.352 56.0677 105.212 56.0677 111.052H58.0677ZM96.9256 134.741C85.9581 132.103 76.1767 129.59 69.1327 125.962C62.1236 122.351 58.0677 117.773 58.0677 111.052H56.0677C56.0677 118.841 60.884 123.963 68.2169 127.74C75.515 131.499 85.5456 134.061 96.4579 136.686L96.9256 134.741ZM181 209.773C181 185.99 171.539 170.019 156.227 158.605C140.987 147.244 119.986 140.422 96.9309 134.742L96.4526 136.684C119.487 142.358 140.141 149.107 155.032 160.209C169.852 171.257 179 186.64 179 209.773H181Z" fill="url(#paint0_linear_1024_614)" mask="url(#path-1-inside-1_1024_614)"/>
<defs>
<linearGradient id="paint0_linear_1024_614" x1="90" y1="0" x2="90" y2="321.878" gradientUnits="userSpaceOnUse">
<stop stop-color="#64F607"/>
<stop offset="1" stop-color="#64F607" stop-opacity="0"/>
</linearGradient>
</defs>
</svg>
