<svg width="88" height="88" viewBox="0 0 88 88" fill="none" xmlns="http://www.w3.org/2000/svg">
<g filter="url(#filter0_b_7_2)">
<circle cx="44" cy="44" r="44" fill="#64F607"/>
</g>
<path d="M41.3118 27.7589L39.9766 22.5662H46.5045L45.466 27.6105H43.6856C42.7958 27.6105 42.0535 27.6105 41.3118 27.7589Z" fill="#202020"/>
<path d="M41.1634 61.7342L39.9766 66.3335H46.5045L45.6143 61.7342C45.2434 61.7342 44.9096 61.7713 44.5758 61.8084C44.242 61.8455 43.9082 61.8826 43.5373 61.8826C42.7956 61.7342 41.9052 61.7342 41.1634 61.7342Z" fill="#202020"/>
<path d="M55.9999 51.0518C55.9999 56.838 51.4007 60.6954 43.5374 60.6954C39.5316 60.6954 35.0807 60.2503 31.52 57.1347L34.6357 51.497C37.6029 53.5741 40.7185 53.8708 43.5374 53.8708C47.2465 53.8708 49.1753 52.5355 49.1753 50.9035C49.1753 48.8264 45.9113 47.9362 43.0924 47.3428C37.3062 46.0075 32.4102 43.9305 32.4102 37.5508C32.4102 32.0614 36.5644 28.5007 43.6858 28.5007C46.8014 28.5007 50.8072 28.9457 54.6647 31.1712L52.2908 36.6607C49.472 35.4738 45.9113 35.0287 43.8342 35.0287C40.8669 35.0287 39.3833 36.0672 39.3833 37.5508C39.3833 39.6279 41.7571 40.2215 44.7244 40.9633C50.9556 42.5953 55.9999 44.6722 55.9999 51.0518Z" fill="#202020"/>
<defs>
<filter id="filter0_b_7_2" x="-4" y="-4" width="96" height="96" filterUnits="userSpaceOnUse" color-interpolation-filters="sRGB">
<feFlood flood-opacity="0" result="BackgroundImageFix"/>
<feGaussianBlur in="BackgroundImageFix" stdDeviation="2"/>
<feComposite in2="SourceAlpha" operator="in" result="effect1_backgroundBlur_7_2"/>
<feBlend mode="normal" in="SourceGraphic" in2="effect1_backgroundBlur_7_2" result="shape"/>
</filter>
</defs>
</svg>
