<svg width="40" height="41" viewBox="0 0 40 41" fill="none" xmlns="http://www.w3.org/2000/svg">
<rect x="0.5" y="1.49854" width="39" height="39" rx="19.5" stroke="#64F607"/>
<mask id="path-2-inside-1_14_74" fill="white">
<path d="M19.162 26.9985L18 25.7336L22.3557 20.9985L18 16.2635L19.1653 14.9985L23.5178 19.7336C23.8265 20.0691 24 20.5241 24 20.9985C24 21.473 23.8265 21.928 23.5178 22.2635L19.162 26.9985Z"/>
</mask>
<path d="M19.162 26.9985L18 25.7336L22.3557 20.9985L18 16.2635L19.1653 14.9985L23.5178 19.7336C23.8265 20.0691 24 20.5241 24 20.9985C24 21.473 23.8265 21.928 23.5178 22.2635L19.162 26.9985Z" fill="white"/>
<path d="M19.162 26.9985L3.45146 41.4308L19.1513 58.5212L34.8627 41.4415L19.162 26.9985ZM18 25.7336L2.29928 11.2906L-10.9776 25.7237L2.28944 40.1658L18 25.7336ZM22.3557 20.9985L38.0564 35.4415L51.3424 20.9985L38.0564 6.55559L22.3557 20.9985ZM18 16.2635L2.30982 1.80909L-10.9964 16.2529L2.29928 30.7064L18 16.2635ZM19.1653 14.9985L34.8715 0.56151L19.1827 -16.5064L3.47513 0.544147L19.1653 14.9985ZM23.5178 19.7336L7.81159 34.1706L7.8203 34.1801L23.5178 19.7336ZM23.5178 22.2635L7.8203 7.81699L7.81704 7.82054L23.5178 22.2635ZM34.8726 12.5663L33.7106 11.3014L2.28944 40.1658L3.45146 41.4308L34.8726 12.5663ZM33.7007 40.1765L38.0564 35.4415L6.65502 6.55559L2.29928 11.2906L33.7007 40.1765ZM38.0564 6.55559L33.7007 1.82054L2.29928 30.7064L6.65501 35.4415L38.0564 6.55559ZM33.6902 30.7179L34.8555 29.4529L3.47513 0.544147L2.30982 1.80909L33.6902 30.7179ZM3.45916 29.4356L7.81159 34.1706L39.2239 5.29656L34.8715 0.56151L3.45916 29.4356ZM7.8203 34.1801C4.34655 30.4055 2.66667 25.6376 2.66667 20.9985H45.3333C45.3333 15.4106 43.3065 9.73268 39.2152 5.28709L7.8203 34.1801ZM2.66667 20.9985C2.66667 16.3594 4.34655 11.5915 7.8203 7.81699L39.2152 36.71C43.3065 32.2644 45.3333 26.5865 45.3333 20.9985H2.66667ZM7.81704 7.82054L3.4613 12.5556L34.8627 41.4415L39.2185 36.7064L7.81704 7.82054Z" fill="#64F607" mask="url(#path-2-inside-1_14_74)"/>
</svg>
