<svg width="16" height="16" viewBox="0 0 16 16" fill="none" xmlns="http://www.w3.org/2000/svg">
<path fill-rule="evenodd" clip-rule="evenodd" d="M6.94295 8.8781C5.96795 7.90311 5.23295 6.81144 4.74462 5.70394C4.64129 5.46977 4.70212 5.19561 4.88295 5.01477L5.56545 4.33311C6.12462 3.77394 6.12462 2.98311 5.63629 2.49477L4.65795 1.51644C4.00712 0.865613 2.95212 0.865613 2.30129 1.51644L1.75795 2.05977C1.14045 2.67727 0.882945 3.56811 1.04962 4.45144C1.46129 6.62894 2.72629 9.0131 4.76712 11.0539C6.80795 13.0948 9.19209 14.3598 11.3696 14.7714C12.253 14.9381 13.1438 14.6806 13.7613 14.0631L14.3038 13.5206C14.9546 12.8698 14.9546 11.8148 14.3038 11.1639L13.3263 10.1864C12.838 9.6981 12.0463 9.6981 11.5588 10.1864L10.8063 10.9398C10.6255 11.1206 10.3513 11.1814 10.1171 11.0781C9.00959 10.5889 7.91799 9.8531 6.94295 8.8781Z" stroke="#64F607" stroke-width="1.5" stroke-linecap="round" stroke-linejoin="round"/>
</svg>
