<svg width="40" height="41" viewBox="0 0 40 41" fill="none" xmlns="http://www.w3.org/2000/svg">
<rect x="39.5" y="40.4985" width="39" height="39" rx="19.5" transform="rotate(-180 39.5 40.4985)" stroke="#64F607"/>
<g filter="url(#filter0_d_14_73)">
<mask id="path-2-inside-1_14_73" fill="white">
<path d="M21.6443 14.9985L23 16.2635L17.9183 20.9985L23 25.7336L21.6405 26.9985L16.5626 22.2635C16.2024 21.928 16 21.473 16 20.9985C16 20.5241 16.2024 20.0691 16.5626 19.7336L21.6443 14.9985Z"/>
</mask>
<path d="M21.6443 14.9985L23 16.2635L17.9183 20.9985L23 25.7336L21.6405 26.9985L16.5626 22.2635C16.2024 21.928 16 21.473 16 20.9985C16 20.5241 16.2024 20.0691 16.5626 19.7336L21.6443 14.9985Z" fill="white"/>
<path d="M21.6443 14.9985L36.1982 -0.599406L21.6543 -14.1698L7.10108 -0.60934L21.6443 14.9985ZM23 16.2635L37.5432 31.8714L54.2822 16.2742L37.5539 0.665542L23 16.2635ZM17.9183 20.9985L3.37509 5.39066L-13.3754 20.9985L3.37509 36.6064L17.9183 20.9985ZM23 25.7336L37.5318 41.3521L54.306 25.745L37.5432 10.1257L23 25.7336ZM21.6405 26.9985L7.09135 42.6009L21.6243 56.1528L36.1723 42.617L21.6405 26.9985ZM16.5626 22.2635L31.1117 6.66109L31.1023 6.65231L16.5626 22.2635ZM16.5626 19.7336L31.1023 35.3448L31.1058 35.3415L16.5626 19.7336ZM7.09043 30.5965L8.44612 31.8614L37.5539 0.665542L36.1982 -0.599406L7.09043 30.5965ZM8.45678 0.655606L3.37509 5.39066L32.4615 36.6064L37.5432 31.8714L8.45678 0.655606ZM3.37509 36.6064L8.45678 41.3415L37.5432 10.1257L32.4615 5.39066L3.37509 36.6064ZM8.46817 10.1151L7.10864 11.38L36.1723 42.617L37.5318 41.3521L8.46817 10.1151ZM36.1896 11.3961L31.1117 6.6611L2.01351 37.8659L7.09135 42.6009L36.1896 11.3961ZM31.1023 6.65231C34.8907 10.1806 37.3333 15.3048 37.3333 20.9985L-5.33333 20.9985C-5.33334 27.6412 -2.4859 33.6753 2.02293 37.8746L31.1023 6.65231ZM37.3333 20.9985C37.3333 26.6923 34.8906 31.8164 31.1023 35.3448L2.02293 4.12242C-2.4859 8.32179 -5.33333 14.3559 -5.33333 20.9985L37.3333 20.9985ZM31.1058 35.3415L36.1875 30.6064L7.10108 -0.60934L2.0194 4.12571L31.1058 35.3415Z" fill="#64F607" mask="url(#path-2-inside-1_14_73)"/>
</g>
<defs>
<filter id="filter0_d_14_73" x="12" y="14.9985" width="15" height="20" filterUnits="userSpaceOnUse" color-interpolation-filters="sRGB">
<feFlood flood-opacity="0" result="BackgroundImageFix"/>
<feColorMatrix in="SourceAlpha" type="matrix" values="0 0 0 0 0 0 0 0 0 0 0 0 0 0 0 0 0 0 127 0" result="hardAlpha"/>
<feOffset dy="4"/>
<feGaussianBlur stdDeviation="2"/>
<feComposite in2="hardAlpha" operator="out"/>
<feColorMatrix type="matrix" values="0 0 0 0 0 0 0 0 0 0 0 0 0 0 0 0 0 0 0.25 0"/>
<feBlend mode="normal" in2="BackgroundImageFix" result="effect1_dropShadow_14_73"/>
<feBlend mode="normal" in="SourceGraphic" in2="effect1_dropShadow_14_73" result="shape"/>
</filter>
</defs>
</svg>
