<svg width="6" height="13" viewBox="0 0 6 13" fill="none" xmlns="http://www.w3.org/2000/svg">
<mask id="path-1-inside-1_421_239" fill="white">
<path d="M1.16202 12.9985L0 11.7336L4.35573 6.99853L0 2.26348L1.16532 0.998535L5.51775 5.73359C5.82654 6.06911 6 6.52411 6 6.99853C6 7.47296 5.82654 7.92796 5.51775 8.26348L1.16202 12.9985Z"/>
</mask>
<path d="M1.16202 12.9985L0 11.7336L4.35573 6.99853L0 2.26348L1.16532 0.998535L5.51775 5.73359C5.82654 6.06911 6 6.52411 6 6.99853C6 7.47296 5.82654 7.92796 5.51775 8.26348L1.16202 12.9985Z" fill="white"/>
<path d="M1.16202 12.9985L-14.5485 27.4308L1.15128 44.5212L16.8627 27.4415L1.16202 12.9985ZM0 11.7336L-15.7007 -2.70936L-28.9776 11.7237L-15.7106 26.1658L0 11.7336ZM4.35573 6.99853L20.0564 21.4415L33.3424 6.99854L20.0564 -7.44441L4.35573 6.99853ZM0 2.26348L-15.6902 -12.1909L-28.9964 2.25291L-15.7007 16.7064L0 2.26348ZM1.16532 0.998535L16.8715 -13.4385L1.18274 -30.5064L-14.5249 -13.4559L1.16532 0.998535ZM5.51775 5.73359L-10.1884 20.1706L-10.1797 20.1801L5.51775 5.73359ZM5.51775 8.26348L-10.1797 -6.18301L-10.183 -6.17946L5.51775 8.26348ZM16.8726 -1.4337L15.7106 -2.69865L-15.7106 26.1658L-14.5485 27.4308L16.8726 -1.4337ZM15.7007 26.1765L20.0564 21.4415L-11.345 -7.44441L-15.7007 -2.70936L15.7007 26.1765ZM20.0564 -7.44441L15.7007 -12.1795L-15.7007 16.7064L-11.345 21.4415L20.0564 -7.44441ZM15.6902 16.7179L16.8555 15.4529L-14.5249 -13.4559L-15.6902 -12.1909L15.6902 16.7179ZM-14.5408 15.4356L-10.1884 20.1706L21.2239 -8.70344L16.8715 -13.4385L-14.5408 15.4356ZM-10.1797 20.1801C-13.6534 16.4055 -15.3333 11.6376 -15.3333 6.99853H27.3333C27.3333 1.41058 25.3065 -4.26732 21.2152 -8.71291L-10.1797 20.1801ZM-15.3333 6.99853C-15.3333 2.35943 -13.6534 -2.40846 -10.1797 -6.18301L21.2152 22.71C25.3065 18.2644 27.3333 12.5865 27.3333 6.99853H-15.3333ZM-10.183 -6.17946L-14.5387 -1.44441L16.8627 27.4415L21.2185 22.7064L-10.183 -6.17946Z" fill="#64F607" mask="url(#path-1-inside-1_421_239)"/>
</svg>
