<svg width="21" height="20" viewBox="0 0 21 20" fill="none" xmlns="http://www.w3.org/2000/svg">
<path d="M10.5117 0C5.00572 0 0.523484 4.47837 0.521484 9.98438C0.520484 11.7444 0.981469 13.4626 1.85547 14.9766L0.5 20L5.73242 18.7637C7.19142 19.5597 8.83386 19.9775 10.5059 19.9785H10.5098C16.0148 19.9785 20.495 15.4991 20.498 9.99414C20.5 7.32514 19.4622 4.81573 17.5762 2.92773C15.6902 1.04073 13.1837 0.001 10.5117 0ZM10.5098 2C12.6458 2.001 14.6531 2.8338 16.1621 4.3418C17.6711 5.8518 18.5 7.85819 18.498 9.99219C18.496 14.3962 14.9138 17.9785 10.5078 17.9785C9.17481 17.9775 7.85441 17.6428 6.69141 17.0078L6.01758 16.6406L5.27344 16.8164L3.30469 17.2812L3.78516 15.4961L4.00195 14.6953L3.58789 13.9766C2.88989 12.7686 2.52048 11.3874 2.52148 9.98438C2.52348 5.58238 6.10677 2 10.5098 2ZM6.97656 5.375C6.80956 5.375 6.53955 5.4375 6.31055 5.6875C6.08155 5.9365 5.43555 6.53958 5.43555 7.76758C5.43555 8.99558 6.33008 10.1826 6.45508 10.3496C6.57908 10.5156 8.18175 13.1152 10.7188 14.1152C12.8267 14.9462 13.2549 14.7822 13.7129 14.7402C14.1709 14.6992 15.1904 14.1377 15.3984 13.5547C15.6064 12.9717 15.6069 12.4702 15.5449 12.3672C15.4829 12.2632 15.3164 12.2012 15.0664 12.0762C14.8174 11.9512 13.5903 11.3486 13.3613 11.2656C13.1323 11.1826 12.9648 11.1406 12.7988 11.3906C12.6328 11.6406 12.1558 12.2012 12.0098 12.3672C11.8638 12.5342 11.7188 12.5566 11.4688 12.4316C11.2188 12.3056 10.4149 12.0414 9.46094 11.1914C8.71894 10.5304 8.21827 9.71484 8.07227 9.46484C7.92727 9.21584 8.05859 9.07908 8.18359 8.95508C8.29559 8.84308 8.43164 8.66358 8.55664 8.51758C8.68064 8.37158 8.72364 8.26756 8.80664 8.10156C8.88964 7.93556 8.84716 7.78906 8.78516 7.66406C8.72316 7.53906 8.23763 6.3065 8.01562 5.8125C7.82863 5.3975 7.63112 5.38786 7.45312 5.38086C7.30813 5.37486 7.14256 5.375 6.97656 5.375Z" fill="#202020"/>
</svg>
